<svg width="16" height="9" viewBox="0 0 16 9" fill="none" xmlns="http://www.w3.org/2000/svg">
<path d="M14.2475 0.657492L8.00003 6.74749L1.75253 0.657492C1.64091 0.548464 1.49107 0.487425 1.33503 0.487425C1.179 0.487425 1.02916 0.548464 0.917534 0.657492C0.863487 0.710447 0.820549 0.773654 0.791237 0.843412C0.761925 0.91317 0.746826 0.988075 0.746826 1.06374C0.746826 1.13941 0.761925 1.21431 0.791237 1.28407C0.820549 1.35383 0.863487 1.41704 0.917534 1.46999L7.56378 7.94999C7.6805 8.06376 7.83704 8.12743 8.00003 8.12743C8.16302 8.12743 8.31957 8.06376 8.43628 7.94999L15.0825 1.47124C15.137 1.41825 15.1802 1.35488 15.2098 1.2849C15.2393 1.21491 15.2545 1.13971 15.2545 1.06374C15.2545 0.987774 15.2393 0.912576 15.2098 0.842587C15.1802 0.772598 15.137 0.709236 15.0825 0.656241C14.9709 0.547213 14.8211 0.486176 14.665 0.486176C14.509 0.486176 14.3592 0.547213 14.2475 0.656241V0.657492Z" fill="#fff"/>
</svg>
